<?xml version="1.0" encoding="utf-8"?>
<!-- Generator: Adobe Illustrator 28.3.0, SVG Export Plug-In . SVG Version: 6.00 Build 0)  -->
<svg version="1.1" xmlns="http://www.w3.org/2000/svg" xmlns:xlink="http://www.w3.org/1999/xlink" x="0px" y="0px"
	 viewBox="0 0 482.66 139.06" style="enable-background:new 0 0 482.66 139.06;" xml:space="preserve">
<style type="text/css">
	.st0{fill:url(#SVGID_1_);}
	.st1{fill:url(#SVGID_00000093167797051690467900000011621161657916173738_);}
	.st2{fill:url(#SVGID_00000098186186182641330360000010384453035938206883_);}
	.st3{fill:url(#SVGID_00000143614206587445201590000003070254103400843143_);}
	.st4{fill:url(#SVGID_00000085955056299818597590000003366108286154681744_);}
	.st5{fill:#2E353F;}
</style>
<g id="圖層_2">
	<g>
		<linearGradient id="SVGID_1_" gradientUnits="userSpaceOnUse" x1="78.0435" y1="-2.288" x2="78.0435" y2="136.7451">
			<stop  offset="0" style="stop-color:#DCE9A3"/>
			<stop  offset="1" style="stop-color:#55BADC"/>
		</linearGradient>
		<path class="st0" d="M109.26,0.91c-2.98,2.53-3.44,4.98-2.97,6.97c0.47,2.86,2.97,4.57,2.97,4.57h19.76
			c0,0-28.84,39.24-33.03,43.43c-4.19,4.19-7.27,0-7.27,0s-26.49-18.62-31.8-22.36c-5.07-3.57-9.26,0-9.26,0L0.7,79.96
			c0,0,38.54-22.23,45.43-26.17c4.29-2.66,8.39,0,8.39,0s30.3,20.43,34.74,24.87c4.43,3.83,8.35,0,8.35,0l46.26-56.17
			c0,0,0,20,0,26.33c6.03,6.03,11.52,0,11.52,0V0.91C155.39,0.91,117.91,0.91,109.26,0.91z"/>
		
			<linearGradient id="SVGID_00000003790885223992363620000011558713785541444026_" gradientUnits="userSpaceOnUse" x1="17.9565" y1="-2.2554" x2="17.9565" y2="136.8451">
			<stop  offset="0" style="stop-color:#DCE9A3"/>
			<stop  offset="1" style="stop-color:#55BADC"/>
		</linearGradient>
		<path style="fill:url(#SVGID_00000003790885223992363620000011558713785541444026_);" d="M17.96,94.92c-4.68,0-8.48,3.8-8.48,8.48
			v26.28c0,4.68,3.8,8.48,8.48,8.48c4.68,0,8.48-3.8,8.48-8.48V103.4C26.43,98.71,22.64,94.92,17.96,94.92z"/>
		
			<linearGradient id="SVGID_00000141447457696876236770000011148325886736826280_" gradientUnits="userSpaceOnUse" x1="57.4021" y1="-2.2989" x2="57.4021" y2="136.7575">
			<stop  offset="0" style="stop-color:#DCE9A3"/>
			<stop  offset="1" style="stop-color:#55BADC"/>
		</linearGradient>
		<path style="fill:url(#SVGID_00000141447457696876236770000011148325886736826280_);" d="M57.4,81.35c-4.68,0-8.48,3.8-8.48,8.48
			v39.85c0,4.68,3.8,8.48,8.48,8.48c4.68,0,8.48-3.8,8.48-8.48V89.83C65.88,85.15,62.08,81.35,57.4,81.35z"/>
		
			<linearGradient id="SVGID_00000060016823231466990240000012800349421264702140_" gradientUnits="userSpaceOnUse" x1="97.0924" y1="-2.2881" x2="97.0924" y2="137.3997">
			<stop  offset="0" style="stop-color:#DCE9A3"/>
			<stop  offset="1" style="stop-color:#55BADC"/>
		</linearGradient>
		<path style="fill:url(#SVGID_00000060016823231466990240000012800349421264702140_);" d="M97.09,109.53
			c-4.68,0-8.48,3.8-8.48,8.48v11.67c0,4.68,3.8,8.48,8.48,8.48c4.68,0,8.48-3.8,8.48-8.48v-11.67
			C105.57,113.32,101.77,109.53,97.09,109.53z"/>
		
			<linearGradient id="SVGID_00000155118278756596048580000008463903863369845387_" gradientUnits="userSpaceOnUse" x1="136.7826" y1="-1.6033" x2="136.7826" y2="137.3699">
			<stop  offset="0" style="stop-color:#DCE9A3"/>
			<stop  offset="1" style="stop-color:#55BADC"/>
		</linearGradient>
		<path style="fill:url(#SVGID_00000155118278756596048580000008463903863369845387_);" d="M136.78,59.83
			c-4.68,0-8.48,3.8-8.48,8.48v61.37c0,4.68,3.8,8.48,8.48,8.48c4.68,0,8.48-3.8,8.48-8.48V68.31
			C145.26,63.63,141.47,59.83,136.78,59.83z"/>
	</g>
</g>
<g id="圖層_3">
</g>
<g id="圖層_4">
	<path class="st5" d="M200.48,43.75c-1.02-1.26-2.29-2.35-3.83-3.28c-1.53-0.93-3.62-2.02-6.25-3.29c-3.66-1.74-6.65-3.36-8.96-4.86
		c-2.31-1.5-4.27-3.48-5.9-5.94c-1.62-2.46-2.43-5.46-2.43-9c0-2.4,0.67-4.84,2.02-7.33c1.35-2.49,3.54-4.59,6.57-6.3
		c3.03-1.71,6.89-2.56,11.56-2.56c4.2,0,7.75,1.04,10.67,3.1c2.91,2.07,5.08,4.7,6.52,7.88l-8.28,5.49c-1.32-2.82-2.79-5-4.41-6.53
		c-1.62-1.53-3.6-2.29-5.94-2.29c-2.4,0-4.47,0.72-6.21,2.16c-1.74,1.44-2.61,3.57-2.61,6.39c0,1.86,0.54,3.48,1.62,4.86
		c1.08,1.38,2.41,2.56,4.01,3.56c1.59,0.99,3.79,2.18,6.61,3.55c3.54,1.68,6.4,3.24,8.6,4.68c2.19,1.44,4.05,3.32,5.58,5.62
		c1.53,2.31,2.29,5.12,2.29,8.42c0,3.6-0.9,6.74-2.7,9.4c-1.8,2.67-4.27,4.74-7.42,6.21c-3.15,1.47-6.65,2.21-10.48,2.21
		c-4.02,0-7.92-1.06-11.7-3.19c-3.78-2.13-6.57-4.87-8.37-8.23l8.55-6.03c3.48,6.24,7.56,9.36,12.24,9.36
		c2.94,0,5.37-0.79,7.29-2.38c1.92-1.59,2.88-4.03,2.88-7.33C202.01,46.45,201.5,45.01,200.48,43.75z"/>
	<path class="st5" d="M255.73,10.81h-14.85l-0.54,54.18h-8.55l-0.72-54.18h-15.39V2.26l40.41-0.72L255.73,10.81z"/>
	<path class="st5" d="M270.89,62.24c-3.15-2.55-5.56-6.27-7.24-11.16c-1.68-4.89-2.52-10.76-2.52-17.6c0-10.5,1.85-18.55,5.55-24.17
		c3.7-5.61,8.82-8.42,15.38-8.42c6.66,0,11.85,2.81,15.58,8.42c3.72,5.61,5.59,13.67,5.59,24.17c0,6.84-0.85,12.71-2.56,17.6
		c-1.7,4.89-4.14,8.61-7.32,11.16c-3.17,2.55-6.94,3.83-11.29,3.83C277.76,66.07,274.03,64.79,270.89,62.24z M291.61,51.44
		c2.07-4.35,3.11-10.33,3.11-17.96c0-7.74-1.04-13.8-3.11-18.18c-2.07-4.38-5.23-6.57-9.48-6.57c-3.99,0-7.11,2.24-9.36,6.71
		c-2.26,4.47-3.38,10.48-3.38,18.04c0,7.44,1.13,13.38,3.38,17.82c2.25,4.44,5.4,6.66,9.44,6.66
		C286.41,57.97,289.54,55.79,291.61,51.44z"/>
	<path class="st5" d="M337.86,20.41c-0.54-3.6-1.59-6.35-3.17-8.24c-1.58-1.89-3.57-2.83-5.98-2.83c-4.33,0-7.57,2.16-9.71,6.48
		c-2.14,4.32-3.21,10.26-3.21,17.82c0,7.62,1.07,13.52,3.21,17.69c2.14,4.17,5.38,6.25,9.71,6.25c2.41,0,4.4-0.87,5.98-2.61
		c1.58-1.74,2.63-4.38,3.17-7.92l8.9,3.15c-0.37,2.88-1.4,5.53-3.09,7.96c-1.68,2.43-3.82,4.36-6.42,5.81
		c-2.59,1.44-5.39,2.16-8.38,2.16c-7.49,0-12.97-2.94-16.45-8.82c-3.48-5.88-5.21-14.04-5.21-24.48c0.11-10.2,2.02-18.01,5.74-23.45
		c3.72-5.43,9.16-8.15,16.32-8.15c2.78,0,5.44,0.72,7.98,2.16c2.54,1.44,4.67,3.38,6.38,5.81c1.71,2.43,2.75,5.08,3.13,7.96
		L337.86,20.41z"/>
	<path class="st5" d="M359.1,43.84v0.45l0.63,20.7h-8.64l0.18-63l10.17-0.81l-1.98,30.78c3.9-4.98,10.77-15.12,20.61-30.42
		l11.07,0.54l-17.82,25.11l19.17,37.8h-10.26l-15.39-30.87L359.1,43.84z"/>
	<path class="st5" d="M425.77,43.75c-1.02-1.26-2.29-2.35-3.82-3.28c-1.53-0.93-3.62-2.02-6.26-3.29c-3.66-1.74-6.65-3.36-8.95-4.86
		c-2.31-1.5-4.28-3.48-5.9-5.94c-1.62-2.46-2.43-5.46-2.43-9c0-2.4,0.67-4.84,2.02-7.33c1.35-2.49,3.54-4.59,6.57-6.3
		c3.03-1.71,6.88-2.56,11.57-2.56c4.2,0,7.75,1.04,10.67,3.1c2.91,2.07,5.08,4.7,6.52,7.88l-8.28,5.49c-1.32-2.82-2.79-5-4.41-6.53
		c-1.62-1.53-3.6-2.29-5.94-2.29c-2.4,0-4.47,0.72-6.21,2.16c-1.74,1.44-2.61,3.57-2.61,6.39c0,1.86,0.54,3.48,1.62,4.86
		c1.08,1.38,2.42,2.56,4,3.56c1.59,0.99,3.79,2.18,6.62,3.55c3.54,1.68,6.4,3.24,8.59,4.68c2.19,1.44,4.05,3.32,5.58,5.62
		c1.53,2.31,2.29,5.12,2.29,8.42c0,3.6-0.9,6.74-2.7,9.4c-1.8,2.67-4.28,4.74-7.43,6.21c-3.15,1.47-6.65,2.21-10.48,2.21
		c-4.02,0-7.92-1.06-11.7-3.19c-3.78-2.13-6.57-4.87-8.37-8.23l8.55-6.03c3.48,6.24,7.56,9.36,12.24,9.36
		c2.94,0,5.37-0.79,7.29-2.38c1.92-1.59,2.88-4.03,2.88-7.33C427.3,46.45,426.79,45.01,425.77,43.75z"/>
	<path class="st5" d="M198.64,75.79c3.06,1.14,5.7,3.21,7.92,6.21c2.22,3,3.33,7.02,3.33,12.06c0,4.26-0.93,7.85-2.79,10.75
		c-1.86,2.91-4.34,5.07-7.43,6.48c-3.09,1.41-6.5,2.12-10.21,2.12h-7.74l0.45,23.67h-8.82l0.45-26.64l-0.9-36.36h16.56
		C192.52,74.08,195.58,74.65,198.64,75.79z M200.62,93.79c0-3.78-1.01-6.73-3.01-8.87c-2.01-2.13-4.79-3.2-8.33-3.2h-7.29
		l-0.27,24.12h7.56C196.84,105.85,200.62,101.83,200.62,93.79z"/>
	<path class="st5" d="M255.28,137.08H244.3l-9-26.37l-9.54,0.09l0.18,26.28h-9.09l0.63-26.64l-0.99-36.36h17.82
		c5.7,0,10.59,1.26,14.67,3.78c4.08,2.52,6.12,7.23,6.12,14.13c0,3.9-1.07,7.47-3.19,10.71c-2.13,3.24-5.06,5.43-8.78,6.57
		L255.28,137.08z M242.99,100.09c1.89-1.92,2.83-4.62,2.83-8.1c0-3.18-0.96-5.67-2.88-7.47c-1.92-1.8-4.92-2.73-9-2.79l-7.65-0.09
		l-0.36,21.33h8.91C238.39,102.97,241.1,102.01,242.99,100.09z"/>
	<path class="st5" d="M270.89,134.33c-3.15-2.55-5.56-6.27-7.24-11.16c-1.68-4.89-2.52-10.75-2.52-17.59
		c0-10.5,1.85-18.55,5.55-24.17c3.7-5.61,8.82-8.42,15.38-8.42c6.66,0,11.85,2.81,15.58,8.42c3.72,5.61,5.59,13.67,5.59,24.17
		c0,6.84-0.85,12.71-2.56,17.59c-1.7,4.89-4.14,8.61-7.32,11.16c-3.17,2.55-6.94,3.83-11.29,3.83
		C277.76,138.16,274.03,136.88,270.89,134.33z M291.61,123.53c2.07-4.35,3.11-10.33,3.11-17.96c0-7.74-1.04-13.8-3.11-18.18
		c-2.07-4.38-5.23-6.57-9.48-6.57c-3.99,0-7.11,2.24-9.36,6.71c-2.26,4.47-3.38,10.48-3.38,18.04c0,7.44,1.13,13.38,3.38,17.82
		c2.25,4.44,5.4,6.66,9.44,6.66C286.41,130.06,289.54,127.88,291.61,123.53z"/>
	<path class="st5" d="M335.52,76.03c3.06,1.14,5.7,3.21,7.92,6.21c2.22,3,3.33,7.02,3.33,12.06c0,4.26-0.93,7.85-2.79,10.75
		c-1.86,2.91-4.34,5.07-7.42,6.48c-3.09,1.41-6.5,2.12-10.22,2.12h-7.74l0.45,23.67h-8.82l0.45-26.64l-0.9-36.36h16.56
		C329.4,74.32,332.46,74.89,335.52,76.03z M337.5,94.03c0-3.78-1-6.73-3.01-8.87c-2.01-2.13-4.79-3.2-8.33-3.2h-7.29l-0.27,24.12
		h7.56C333.72,106.09,337.5,102.07,337.5,94.03z"/>
	<path class="st5" d="M392.26,73.18l-0.45,63.9h-8.55l-0.36-28.35l-21.96-0.27l-0.27,28.62h-8.55l-0.81-63.09l9.9-0.81l-0.18,27
		l21.78-0.63l-0.36-25.56L392.26,73.18z"/>
	<path class="st5" d="M408.62,128.44l24.84-0.81l-0.18,9.54l-33.21-0.09l0.36-29.07v-6.84l-0.72-27.09l33.93-0.81l-0.36,9.72
		l-24.84-0.45v18.18l18.99-0.63v9.09l-18.99-0.45L408.62,128.44z"/>
	<path class="st5" d="M481.14,82.9h-14.85l-0.54,54.18h-8.55l-0.72-54.18h-15.39v-8.55l40.41-0.72L481.14,82.9z"/>
</g>
</svg>
